<svg width="16" height="13" viewBox="0 0 16 13" fill="none" xmlns="http://www.w3.org/2000/svg">
<path d="M11.408 5.67954C11.0609 5.67954 10.728 5.81744 10.4825 6.06291C10.237 6.30837 10.0991 6.64129 10.0991 6.98843C10.0991 7.33557 10.237 7.66848 10.4825 7.91395C10.728 8.15941 11.0609 8.29731 11.408 8.29731C11.7552 8.29731 12.0881 8.15941 12.3336 7.91395C12.579 7.66848 12.7169 7.33557 12.7169 6.98843C12.7169 6.64129 12.579 6.30837 12.3336 6.06291C12.0881 5.81744 11.7552 5.67954 11.408 5.67954ZM3.28306 6.98843C3.28306 6.64129 3.42096 6.30837 3.66642 6.06291C3.91188 5.81744 4.2448 5.67954 4.59194 5.67954C4.93908 5.67954 5.272 5.81744 5.51746 6.06291C5.76293 6.30837 5.90083 6.64129 5.90083 6.98843C5.90083 7.33557 5.76293 7.66848 5.51746 7.91395C5.272 8.15941 4.93908 8.29731 4.59194 8.29731C4.2448 8.29731 3.91188 8.15941 3.66642 7.91395C3.42096 7.66848 3.28306 7.33557 3.28306 6.98843ZM8.65443 1.11343C8.65443 0.939858 8.58548 0.773398 8.46275 0.650666C8.34001 0.527935 8.17355 0.458984 7.99998 0.458984C7.82642 0.458984 7.65996 0.527935 7.53722 0.650666C7.41449 0.773398 7.34554 0.939858 7.34554 1.11343V1.76787H2.62861C2.10791 1.76787 1.60852 1.97472 1.24033 2.34292C0.872133 2.71111 0.665283 3.21049 0.665283 3.7312V10.2457C0.665283 10.7664 0.872133 11.2657 1.24033 11.6339C1.60852 12.0021 2.10791 12.209 2.62861 12.209H13.3714C13.8921 12.209 14.3914 12.0021 14.7596 11.6339C15.1278 11.2657 15.3347 10.7664 15.3347 10.2457V3.7312C15.3347 3.21049 15.1278 2.71111 14.7596 2.34292C14.3914 1.97472 13.8921 1.76787 13.3714 1.76787H8.65443V1.11343ZM2.62861 3.07676H13.3714C13.5449 3.07676 13.7114 3.14571 13.8341 3.26844C13.9569 3.39117 14.0258 3.55763 14.0258 3.7312V10.2457C14.0258 10.4192 13.9569 10.5857 13.8341 10.7084C13.7114 10.8311 13.5449 10.9001 13.3714 10.9001H2.62861C2.45504 10.9001 2.28858 10.8311 2.16585 10.7084C2.04312 10.5857 1.97417 10.4192 1.97417 10.2457V3.7312C1.97417 3.55763 2.04312 3.39117 2.16585 3.26844C2.28858 3.14571 2.45504 3.07676 2.62861 3.07676Z" fill="#8385A1"/>
</svg>
