<svg width="16" height="16" viewBox="0 0 16 16" fill="none" xmlns="http://www.w3.org/2000/svg">
<path d="M10.2559 1C10.41 1.00012 10.5557 1.07167 10.6504 1.19336L13.8945 5.36426C13.9628 5.45202 14 5.56069 14 5.67188V14.5C14 14.7761 13.7761 15 13.5 15H2.5C2.22386 15 2 14.7761 2 14.5V1.5C2 1.22386 2.22386 1 2.5 1H10.2559ZM6.40332 3.52539C6.16924 3.57382 5.95292 3.67753 5.78418 3.85156C5.61577 4.02553 5.52483 4.23834 5.4873 4.45312C5.41623 4.86083 5.52518 5.32348 5.69238 5.75684C5.98419 6.51293 6.53943 7.39229 7.1875 8.21191C7.17588 8.29941 7.16488 8.38816 7.15137 8.47559C7.1233 8.65706 7.08981 8.83599 7.05469 9.01074C6.29014 9.2581 5.57972 9.58192 5.08203 9.96484C4.74208 10.2265 4.42601 10.5728 4.33789 11.0068C4.24034 11.4887 4.44894 11.9228 4.8291 12.2656C5.21512 12.6137 5.67557 12.7693 6.14941 12.6152C6.57371 12.4771 6.89477 12.1234 7.13281 11.7471C7.45303 11.2406 7.70881 10.5521 7.89941 9.80469C7.99553 9.77927 8.09334 9.75353 8.19141 9.73047C8.2952 9.70607 8.39956 9.68423 8.50293 9.66309C9.03033 10.1664 9.57462 10.5963 10.083 10.874C10.4916 11.0973 10.9459 11.2617 11.3789 11.2188C11.6063 11.1961 11.8276 11.1152 12.0186 10.9609C12.2071 10.8084 12.3413 10.6039 12.4307 10.3721C12.6115 9.90231 12.5729 9.4315 12.2422 9.06934C11.9547 8.75459 11.5165 8.60507 11.0938 8.5332C10.4574 8.42507 9.65284 8.4587 8.83789 8.58594C8.65332 8.39428 8.46969 8.19215 8.29102 7.98242C8.27028 7.95808 8.25002 7.93265 8.22949 7.9082C8.32497 6.95128 8.31792 5.9925 8.16699 5.22852C8.07368 4.7565 7.91521 4.30106 7.64453 3.97363C7.3474 3.61434 6.91715 3.41923 6.40332 3.52539ZM6.74609 10.1846C6.60941 10.5925 6.45558 10.9454 6.28711 11.2119C6.09521 11.5153 5.93465 11.6332 5.83984 11.6641C5.79436 11.6788 5.696 11.701 5.49902 11.5234C5.29706 11.3413 5.31108 11.2423 5.31836 11.2061C5.33531 11.1226 5.42313 10.9644 5.69141 10.7578C5.95356 10.5561 6.31856 10.3597 6.74609 10.1846ZM9.81348 9.4834C10.235 9.45686 10.6167 9.46706 10.9258 9.51953C11.274 9.57874 11.4424 9.67606 11.5039 9.74316C11.522 9.76289 11.5751 9.80995 11.4971 10.0127C11.4569 10.1167 11.4148 10.1632 11.3896 10.1836C11.3669 10.2019 11.3354 10.2181 11.2803 10.2236C11.1464 10.2368 10.9088 10.1853 10.5625 9.99609C10.3282 9.86809 10.0758 9.6929 9.81348 9.4834ZM6.60547 4.50488C6.71538 4.48218 6.78472 4.50332 6.87402 4.61133C6.98958 4.7513 7.10517 5.0155 7.18555 5.42188C7.25544 5.77564 7.28836 6.1951 7.29102 6.64844C7.0008 6.20053 6.77028 5.7704 6.62598 5.39648C6.47954 5.01695 6.44886 4.76224 6.47266 4.625C6.48209 4.57122 6.49734 4.55279 6.50195 4.54785C6.50538 4.54432 6.52832 4.52092 6.60547 4.50488Z" fill="white"/>
</svg>
