<svg width="16" height="16" viewBox="0 0 16 16" fill="none" xmlns="http://www.w3.org/2000/svg">
<path d="M10.2559 1C10.41 1.00012 10.5557 1.07167 10.6504 1.19336L13.8945 5.36426C13.9628 5.45202 14 5.56069 14 5.67188V14.5C14 14.7761 13.7761 15 13.5 15H2.5C2.22386 15 2 14.7761 2 14.5V1.5C2 1.22386 2.22386 1 2.5 1H10.2559ZM5.09961 5C5.04469 5.00021 5.00021 5.04469 5 5.09961V5.82617C5 5.88127 5.04456 5.92655 5.09961 5.92676H5.56543C5.62062 5.92676 5.66498 5.97119 5.66504 6.02637V10.9736C5.66498 11.0288 5.62062 11.0732 5.56543 11.0732H5.09961C5.04456 11.0735 5 11.1187 5 11.1738V11.9004C5.00021 11.9553 5.04469 11.9998 5.09961 12H7.78418C7.8391 11.9998 7.88358 11.9553 7.88379 11.9004V11.1738C7.88379 11.1187 7.83924 11.0734 7.78418 11.0732H7.12793C7.07285 11.0731 7.02838 11.0287 7.02832 10.9736V9.53711C7.02832 9.48196 7.07281 9.43665 7.12793 9.43652H8.20117C8.70799 9.43648 9.15851 9.37154 9.55273 9.24121C9.9541 9.11083 10.2955 8.87045 10.5771 8.52051C10.8588 8.17056 11 7.72465 11 7.18262C11 6.44851 10.7396 5.90277 10.2188 5.5459C9.70471 5.1822 9.04589 5.00003 8.24316 5H5.09961ZM7.93652 5.91602C8.4154 5.91602 8.80286 6.02261 9.09863 6.23535C9.40135 6.44805 9.55267 6.76705 9.55273 7.19238C9.55273 8.07761 8.98248 8.52044 7.8418 8.52051H7.12793C7.07292 8.52038 7.02849 8.4759 7.02832 8.4209V6.0166C7.02832 5.96145 7.07281 5.91614 7.12793 5.91602H7.93652Z" fill="white"/>
</svg>
