<svg width="8" height="12" viewBox="0 0 8 12" fill="none" xmlns="http://www.w3.org/2000/svg">
<path d="M4 1.5C4.37084 1.5 4.73335 1.60997 5.04169 1.81599C5.35004 2.02202 5.59036 2.31486 5.73227 2.65747C5.87419 3.00008 5.91132 3.37708 5.83897 3.74079C5.76663 4.10451 5.58805 4.4386 5.32583 4.70083C5.0636 4.96305 4.72951 5.14163 4.36579 5.21397C4.00208 5.28632 3.62508 5.24919 3.28247 5.10727C2.93986 4.96536 2.64702 4.72504 2.44099 4.41669C2.23497 4.10835 2.125 3.74584 2.125 3.375C2.125 2.87772 2.32254 2.40081 2.67417 2.04917C3.02581 1.69754 3.50272 1.5 4 1.5ZM4 0.75C3.48082 0.75 2.97331 0.903954 2.54163 1.19239C2.10995 1.48083 1.7735 1.8908 1.57482 2.37046C1.37614 2.85011 1.32415 3.37791 1.42544 3.88711C1.52672 4.39631 1.77673 4.86404 2.14384 5.23116C2.51096 5.59827 2.97869 5.84828 3.48789 5.94956C3.99709 6.05085 4.52489 5.99886 5.00454 5.80018C5.4842 5.6015 5.89417 5.26505 6.18261 4.83337C6.47105 4.40169 6.625 3.89418 6.625 3.375C6.625 2.67881 6.34844 2.01113 5.85616 1.51884C5.36387 1.02656 4.69619 0.75 4 0.75ZM7.75 11.25H7V9.375C7 9.12877 6.9515 8.88495 6.85727 8.65747C6.76305 8.42998 6.62494 8.22328 6.45083 8.04917C6.27672 7.87506 6.07002 7.73695 5.84253 7.64273C5.61505 7.5485 5.37123 7.5 5.125 7.5H2.875C2.37772 7.5 1.90081 7.69754 1.54917 8.04917C1.19754 8.40081 1 8.87772 1 9.375V11.25H0.25V9.375C0.25 8.67881 0.526562 8.01113 1.01884 7.51884C1.51113 7.02656 2.17881 6.75 2.875 6.75H5.125C5.82119 6.75 6.48887 7.02656 6.98116 7.51884C7.47344 8.01113 7.75 8.67881 7.75 9.375V11.25Z" fill="white"/>
</svg>
