<svg width="16" height="16" viewBox="0 0 16 16" fill="none" xmlns="http://www.w3.org/2000/svg">
<path d="M10.2559 1C10.41 1.00012 10.5557 1.07167 10.6504 1.19336L13.8945 5.36426C13.9628 5.45202 14 5.56069 14 5.67188V14.5C14 14.7761 13.7761 15 13.5 15H2.5C2.22386 15 2 14.7761 2 14.5V1.5C2 1.22386 2.22386 1 2.5 1H10.2559ZM3.59961 6C3.54469 6.00021 3.50021 6.04469 3.5 6.09961V6.68359C3.5 6.73869 3.54456 6.78397 3.59961 6.78418H3.85254C3.89863 6.78431 3.93841 6.81555 3.94922 6.86035L5.22559 12.2207C5.23629 12.2656 5.27617 12.2976 5.32227 12.2979H6.69434C6.73999 12.2977 6.7798 12.266 6.79102 12.2217L8.00684 7.41992C8.00817 7.41465 8.01313 7.41121 8.01855 7.41113C8.02408 7.41113 8.02895 7.41456 8.03027 7.41992L9.21875 12.2217C9.22981 12.2661 9.26964 12.2977 9.31543 12.2979H10.6777C10.7238 12.2977 10.7637 12.2656 10.7744 12.2207L12.0596 6.86035C12.0704 6.8154 12.111 6.78418 12.1572 6.78418H12.4004C12.4554 6.78397 12.5 6.73869 12.5 6.68359V6.09961C12.4998 6.04469 12.4553 6.00021 12.4004 6H10.4248C10.3698 6.00011 10.3254 6.04463 10.3252 6.09961V6.68359C10.3252 6.73876 10.3697 6.78407 10.4248 6.78418H10.8193C10.8832 6.78418 10.9307 6.84287 10.917 6.90527L10.0176 10.9912C10.0162 10.9964 10.0112 11 10.0059 11C10.0007 10.9999 9.99647 10.9962 9.99512 10.9912L8.82422 6.07715C8.81351 6.03219 8.77373 6.00012 8.72754 6H7.4502C7.40422 6 7.36456 6.03154 7.35352 6.07617L6.13672 10.9912C6.13535 10.9964 6.13039 11 6.125 11C6.11963 11 6.11462 10.9964 6.11328 10.9912L5.19629 6.90527C5.18249 6.84289 5.22999 6.78418 5.29395 6.78418H5.71582C5.77096 6.78407 5.81543 6.73876 5.81543 6.68359V6.09961C5.81522 6.04463 5.77083 6.0001 5.71582 6H3.59961Z" fill="white"/>
</svg>
